<?xml version="1.0" encoding="UTF-8" standalone="no"?>
<!-- Creator: CorelDRAW X6 -->

<svg
   xmlns:dc="http://purl.org/dc/elements/1.1/"
   xmlns:cc="http://creativecommons.org/ns#"
   xmlns:rdf="http://www.w3.org/1999/02/22-rdf-syntax-ns#"
   xmlns:svg="http://www.w3.org/2000/svg"
   xmlns="http://www.w3.org/2000/svg"
   xmlns:sodipodi="http://sodipodi.sourceforge.net/DTD/sodipodi-0.dtd"
   xmlns:inkscape="http://www.inkscape.org/namespaces/inkscape"
   xml:space="preserve"
   width="10.666667in"
   height="10.666667in"
   version="1.1"
   style="clip-rule:evenodd;fill-rule:evenodd;image-rendering:optimizeQuality;shape-rendering:geometricPrecision;text-rendering:geometricPrecision"
   viewBox="0 0 10666.517 10666.517"
   id="svg12"
   sodipodi:docname="facebook.svg"
   inkscape:version="0.92.4 (5da689c313, 2019-01-14)"><metadata
   id="metadata16"><rdf:RDF><cc:Work
       rdf:about=""><dc:format>image/svg+xml</dc:format><dc:type
         rdf:resource="http://purl.org/dc/dcmitype/StillImage" /></cc:Work></rdf:RDF></metadata><sodipodi:namedview
   pagecolor="#ffffff"
   bordercolor="#666666"
   borderopacity="1"
   objecttolerance="10"
   gridtolerance="10"
   guidetolerance="10"
   inkscape:pageopacity="0"
   inkscape:pageshadow="2"
   inkscape:window-width="1920"
   inkscape:window-height="1016"
   id="namedview14"
   showgrid="false"
   inkscape:zoom="0.17285183"
   inkscape:cx="-546.71027"
   inkscape:cy="512.00004"
   inkscape:window-x="0"
   inkscape:window-y="36"
   inkscape:window-maximized="1"
   inkscape:current-layer="svg12" />
 <defs
   id="defs4">
  <style
   type="text/css"
   id="style2">
   <![CDATA[
    .fil0 {fill:#1977F3;fill-rule:nonzero}
    .fil1 {fill:#FEFEFE;fill-rule:nonzero}
   ]]>
  </style>
 </defs>
 <g
   id="Layer_x0020_1"
   transform="scale(0.75000112)">
  <metadata
   id="CorelCorpID_0Corel-Layer" />
  <path
   class="fil0"
   d="M 14222,7111 C 14222,3184 11038,0 7111,0 3184,0 0,3184 0,7111 c 0,3549 2600,6491 6000,7025 V 9167 H 4194 V 7111 H 6000 V 5544 c 0,-1782 1062,-2767 2686,-2767 778,0 1592,139 1592,139 v 1750 h -897 c -883,0 -1159,548 -1159,1111 v 1334 h 1972 L 9879,9167 H 8222 v 4969 c 3400,-533 6000,-3475 6000,-7025 z"
   id="path7"
   inkscape:connector-curvature="0"
   style="fill:#1977f3;fill-rule:nonzero" />
  <path
   class="fil1"
   d="m 9879,9167 315,-2056 H 8222 V 5777 c 0,-562 275,-1111 1159,-1111 h 897 V 2916 c 0,0 -814,-139 -1592,-139 -1624,0 -2686,984 -2686,2767 V 7111 H 4194 v 2056 h 1806 v 4969 c 362,57 733,86 1111,86 378,0 749,-30 1111,-86 V 9167 Z"
   id="path9"
   inkscape:connector-curvature="0"
   style="fill:#fefefe;fill-rule:nonzero" />
 </g>
</svg>