<?xml version="1.0" encoding="UTF-8" standalone="no"?>
<svg
   xmlns:dc="http://purl.org/dc/elements/1.1/"
   xmlns:cc="http://creativecommons.org/ns#"
   xmlns:rdf="http://www.w3.org/1999/02/22-rdf-syntax-ns#"
   xmlns:svg="http://www.w3.org/2000/svg"
   xmlns="http://www.w3.org/2000/svg"
   xmlns:sodipodi="http://sodipodi.sourceforge.net/DTD/sodipodi-0.dtd"
   xmlns:inkscape="http://www.inkscape.org/namespaces/inkscape"
   sodipodi:docname="angel2white.svg"
   inkscape:version="1.0beta2 (2b71d25, 2019-12-03)"
   id="svg8"
   version="1.1"
   viewBox="0 0 491.50565 484.50488"
   height="484.50488mm"
   width="491.50565mm">
  <defs
     id="defs2" />
  <sodipodi:namedview
     inkscape:window-maximized="0"
     inkscape:window-y="23"
     inkscape:window-x="80"
     inkscape:window-height="880"
     inkscape:window-width="1600"
     showgrid="false"
     inkscape:document-rotation="0"
     inkscape:current-layer="layer1"
     inkscape:document-units="mm"
     inkscape:cy="922.07415"
     inkscape:cx="1530.7562"
     inkscape:zoom="0.35"
     inkscape:pageshadow="2"
     inkscape:pageopacity="0.0"
     borderopacity="1.0"
     bordercolor="#666666"
     pagecolor="#ffffff"
     id="base" />
  <metadata
     id="metadata5">
    <rdf:RDF>
      <cc:Work
         rdf:about="">
        <dc:format>image/svg+xml</dc:format>
        <dc:type
           rdf:resource="http://purl.org/dc/dcmitype/StillImage" />
        <dc:title></dc:title>
      </cc:Work>
    </rdf:RDF>
  </metadata>
  <g
     transform="translate(319.11194,58.482726)"
     id="layer1"
     inkscape:groupmode="layer"
     inkscape:label="Layer 1">
    <path
       inkscape:connector-curvature="0"
       id="path24"
       d="m 97.096289,425.65844 c 0.17516,-0.45646 -0.46463,-2.01332 -1.41373,-3.44014 -0.29039,-0.43656 -0.59904,-0.93599 -0.68588,-1.10982 -0.17865,-0.35764 -2.90103,-2.46206 -3.18505,-2.46206 -0.10165,0 -0.57506,-0.29765 -1.05203,-0.66145 -0.47697,-0.36381 -0.95508,-0.66146 -1.06247,-0.66146 -0.1074,0 -0.38323,-0.15981 -0.61297,-0.35513 -1.07476,-0.91368 -8.24225,-3.15333 -8.68254,-2.71303 -0.0868,0.0867 0.0705,0.15957 0.34938,0.16179 0.27892,0.003 0.68571,0.12113 0.90399,0.26421 0.28011,0.18362 0.12441,0.21172 -0.52916,0.0955 -0.50933,-0.0905 -1.0596,-0.33036 -1.22284,-0.53295 -0.28515,-0.3539 -2.04631,-0.84518 -6.58237,-1.83621 -1.16417,-0.25434 -3.33448,-0.92704 -4.82291,-1.49486 -3.27156,-1.24812 -4.07843,-2.05325 -5.29868,-5.28728 -1.30801,-3.46662 -1.44797,-5.76426 -1.51962,-24.94687 -0.0679,-18.17963 -0.0918,-18.60624 -1.43969,-25.66459 -0.5924,-3.10221 -1.1931,-10.40722 -0.93281,-11.34374 0.086,-0.30938 0.25945,-0.80063 0.38547,-1.09167 0.77327,-1.78586 1.36312,-3.85704 1.56914,-5.50992 0.13016,-1.04413 0.38958,-2.99106 0.5765,-4.32652 0.35473,-2.53429 0.13093,-4.74972 -0.97085,-9.61044 -0.39898,-1.76022 -0.34168,-4.38089 0.16199,-7.40833 0.27794,-1.67063 0.62058,-4.58697 1.18123,-10.05417 0.66401,-6.47509 0.48317,-18.44177 -0.39185,-25.92916 -0.14455,-1.23693 -0.37574,-3.32925 -0.51376,-4.6496 -0.13802,-1.32035 -0.56249,-3.78976 -0.94327,-5.48754 -0.68944,-3.07401 -0.69016,-3.08922 -0.17143,-3.64601 l 0.52091,-0.55915 0.41783,0.80801 c 0.22981,0.4444 0.41784,0.97992 0.41784,1.19005 0,0.2101 0.34542,0.75181 0.76761,1.20375 0.63254,0.67714 0.97136,0.82174 1.9255,0.82174 1.07035,0 2.19547,-0.49506 2.64907,-1.1656 0.119,-0.17592 0.50656,-0.11586 1.11043,0.17211 0.72354,0.34505 0.9663,0.6485 1.10341,1.37938 0.0967,0.51536 0.2816,0.93703 0.41093,0.93703 0.12932,0 0.23513,0.18034 0.23513,0.40076 0,0.22042 0.38696,0.64283 0.8599,0.93869 1.02816,0.6432 2.32514,0.53575 3.43461,-0.28451 l 0.74013,-0.54721 1.19058,0.52665 c 0.98219,0.43448 1.28586,0.74896 1.73493,1.79666 0.70946,1.65523 1.18256,2.14997 2.24679,2.34963 0.62685,0.11761 1.20987,-0.004 2.06249,-0.42968 l 1.1886,-0.59362 1.40692,0.54202 c 0.77381,0.29811 1.61461,0.60886 1.86844,0.69056 0.531,0.1709 1.52041,1.67831 1.52187,2.31868 0.001,0.58087 1.26258,1.37538 2.18331,1.37538 0.40887,0 1.08794,-0.25471 1.50904,-0.56605 0.76175,-0.56319 0.77277,-0.56356 2.17516,-0.0758 0.77524,0.26969 2.09596,0.79648 2.93494,1.17065 1.27522,0.56878 1.55204,0.81349 1.68776,1.49204 0.18946,0.94734 1.46624,2.12426 2.304501,2.12426 0.32026,0 0.85501,-0.19103 1.18833,-0.4245 0.75885,-0.53149 1.43002,-0.36337 5.59712,1.40211 2.52162,1.06834 3.10537,1.42351 3.40857,2.07396 0.20123,0.4317 0.5471,0.99325 0.76861,1.24791 0.455,0.52308 1.92883,0.61989 2.64344,0.17359 0.36267,-0.22648 0.8077,-0.13057 2.04693,0.44114 0.87092,0.4018 2.89318,1.2985 4.49391,1.99269 2.20956,0.95821 2.97496,1.41962 3.17845,1.91616 0.44118,1.07649 1.22054,1.76027 2.00632,1.76027 0.40542,0 0.81812,-0.13104 0.91712,-0.29122 0.10209,-0.16521 0.50823,-0.22561 0.93835,-0.13957 1.1108,0.22214 10.67038,4.38981 10.78096,4.70011 0.0518,0.14528 0.35021,0.56184 0.66322,0.92575 0.50021,0.58153 0.65985,0.62712 1.31862,0.37666 0.86761,-0.32985 1.54932,-0.133 5.46467,1.57803 1.38244,0.60415 3.76369,1.62761 5.29166,2.27441 1.52797,0.64678 2.97064,1.42809 3.20594,1.73625 0.2942,0.38529 0.87264,0.62217 1.85209,0.75845 0.87729,0.12208 3.9425,1.2772 7.98147,3.00781 7.95015,3.40649 7.88271,3.41046 7.84327,-0.46238 -0.0296,-2.90738 -0.63534,-6.02435 -2.70198,-13.90383 -0.51074,-1.94733 -0.89275,-3.85233 -0.84891,-4.23333 0.0439,-0.38103 -0.0907,-0.88437 -0.29905,-1.11858 -0.20832,-0.23421 -0.43721,-0.88905 -0.50864,-1.45521 -0.11448,-0.90733 -0.52913,-2.98291 -1.18353,-5.92418 -0.11332,-0.50932 -0.32889,-1.52402 -0.47904,-2.25491 -0.15015,-0.73086 -0.58871,-2.69539 -0.97456,-4.36562 -0.86888,-3.76098 -1.4508,-7.00792 -1.45128,-8.0976 -2e-4,-0.45511 -0.16248,-0.96203 -0.36062,-1.12647 -0.19814,-0.16446 -0.42747,-0.86365 -0.50961,-1.55376 -0.0821,-0.69012 -0.33601,-1.61195 -0.56415,-2.04851 -0.22814,-0.43657 -0.41554,-0.91842 -0.41643,-1.0708 -0.003,-0.47127 -1.87656,-2.07735 -4.36726,-3.7433 -1.30969,-0.87598 -4.28018,-2.8599 -6.60109,-4.4087 -2.32092,-1.54879 -4.43773,-3.1601 -4.70403,-3.58068 -0.2663,-0.42061 -0.86768,-0.90604 -1.3364,-1.07876 -1.66502,-0.61354 -2.99761,-1.36324 -5.21785,-2.9355 -3.27642,-2.32021 -5.88925,-4.01524 -6.39785,-4.15049 -0.24459,-0.0651 -0.50875,-0.28514 -0.58701,-0.48908 -0.0783,-0.20394 -0.32368,-0.37082 -0.54538,-0.37082 -0.22171,0 -0.61239,-0.4423 -0.8682,-0.98292 -0.59818,-1.26416 -1.97251,-2.19208 -3.24667,-2.19208 -0.5829,0 -1.25756,-0.21555 -1.65626,-0.52916 -0.37,-0.29105 -0.78202,-0.52917 -0.9156,-0.52917 -0.13358,0 -0.52888,-0.30443 -0.87844,-0.67654 -0.34956,-0.37208 -1.23352,-1.02963 -1.96435,-1.46121 -1.98396,-1.17158 -4.42549,-2.9749 -4.63263,-3.42165 -1.11676,-2.40861 -1.71038,-2.88544 -3.91599,-3.1455 -1.24187,-0.14644 -1.87571,-0.3947 -2.80818,-1.09992 -0.66236,-0.50094 -2.33071,-1.62518 -3.70743,-2.49831 -2.02775,-1.286 -2.53672,-1.73823 -2.67996,-2.38125 -0.39076,-1.75402 -2.32731,-3.0427 -4.57242,-3.0427 -1.055351,0 -1.507311,-0.1618 -2.455901,-0.87913 -0.63939,-0.48353 -1.89669,-1.37417 -2.79401,-1.97919 -1.16208,-0.78354 -1.67846,-1.31395 -1.79478,-1.84354 -0.31968,-1.4555 -1.16986,-2.45557 -2.67226,-3.14338 -1.11701,-0.51139 -1.68971,-0.62611 -2.46865,-0.49451 -0.90415,0.15274 -1.21679,0.0369 -2.88066,-1.06714 -1.63335,-1.08384 -1.90147,-1.37764 -2.147,-2.35273 -0.59902,-2.37894 -2.49039,-3.68288 -5.31369,-3.66333 -2.25759,0.0156 -3.46409,-0.69341 -3.95222,-2.32264 -0.48669,-1.62445 -0.99625,-2.28899 -2.37446,-3.09667 -1.00058,-0.58638 -1.55951,-0.71756 -3.16293,-0.74235 -2.16055,-0.0334 -2.29541,-0.12898 -2.57535,-1.8256 -0.34731,-2.10492 -2.93962,-3.84188 -5.73376,-3.84188 h -1.19169 l -0.34673,-1.23838 c -0.59887,-2.13896 -2.27719,-3.44246 -5.02098,-3.89965 -0.77896,-0.1298 -1.01961,-0.34122 -1.45521,-1.27844 -0.64078,-1.37872 -2.37824,-2.7311 -3.82217,-2.97505 -0.82161,-0.13881 -1.16972,-0.36159 -1.46883,-0.94 -0.52998,-1.02487 -2.55961,-2.53441 -3.69366,-2.74716 -0.52878,-0.0992 -1.04602,-0.40215 -1.21012,-0.70879 -0.15764,-0.29455 -0.82857,-0.87924 -1.49096,-1.29931 -0.66239,-0.42008 -1.73809,-1.39435 -2.39043,-2.16506 -0.65235,-0.7707 -2.36412,-2.61103 -3.80393,-4.08962 l -2.61784,-2.68834 0.002,-4.19083 c 10e-4,-2.30495 0.0781,-4.82233 0.17084,-5.59417 0.15828,-1.31791 0.23466,-1.43644 1.25447,-1.94675 1.51285,-0.75703 2.74577,-1.99824 3.35833,-3.38091 0.53494,-1.20745 1.07944,-5.18847 0.87069,-6.36587 -0.0645,-0.3638 -0.21714,-2.14974 -0.33918,-3.96875 -0.26248,-3.9121 -0.7134,-5.41508 -2.99145,-9.97093 -1.98924,-3.97826 -3.01682,-5.06607 -6.45194,-6.83011 l -2.57611,-1.32292 -3.462,0.0157 c -2.19167,0.01 -3.67895,0.13392 -4.05327,0.33788 -0.32521,0.1772 -1.09912,0.361 -1.7198,0.40845 -1.90907,0.14595 -4.84101,1.83219 -6.8972404,3.96679 -2.23115,2.31619 -2.90803,3.33977 -3.59758,5.44024 -0.684,2.08356 -1.19553,6.79279 -0.97339,8.96108 0.38936,3.80033 2.82038,8.23044 6.0401004,11.007 1.49372,1.28813 1.72437,2.14221 0.26471,0.98024 -0.9816804,-0.78147 -2.9411404,-1.60505 -3.8364504,-1.6125 -0.25467,-0.002 -0.46302,-0.16713 -0.46302,-0.36669 0,-0.19957 -0.44649,-0.85459 -0.99219,-1.45561 -0.80359,-0.88505 -1.3066,-1.17106 -2.6462,-1.50463 -0.9097,-0.22653 -1.76709996,-0.34197 -1.90531996,-0.25655 -0.13822,0.0854 -0.39359,-0.31957 -0.56749,-0.89999 -0.64356,-2.14802 -2.44696004,-3.25699 -5.36921004,-3.30172 -1.71702,-0.0263 -1.82785,-0.11929 -2.27299,-1.90755 -0.60837,-2.44397 -2.4738,-3.56282 -5.8578096,-3.51338 -2.80484,0.041 -3.26791,-0.28824 -4.09579,-2.91189 -0.33755,-1.06974 -0.8268,-2.18521 -1.08722,-2.47882 -0.88139,-0.99372 -2.59181,-1.55538 -4.51927,-1.48402 -1.64132,0.0608 -1.88469,-0.006 -3.23026,-0.87978 -1.96599,-1.27738 -2.55235,-1.99084 -2.7173,-3.30635 -0.16051,-1.28008 -0.90505,-2.44123 -2.12187,-3.30916 -0.72678,-0.51839 -1.17724,-0.60583 -3.12087,-0.60583 -2.49139,0 -3.07364,-0.25981 -5.7694,-2.57441 -0.63895,-0.54861 -1.2938,-1.00242 -1.45521,-1.00848 -0.16142,-0.006 -0.76347,-0.42595 -1.3379,-0.93309 -0.85714,-0.75672 -1.03976,-1.08688 -1.01838,-1.84107 0.0143,-0.50545 -0.0812,-0.91899 -0.21235,-0.91899 -0.13111,0 -0.23839,-0.23398 -0.23839,-0.51996 0,-0.77398 -1.4796,-2.31381 -2.568669,-2.67324 -0.570203,-0.18818 -1.610124,-0.25388 -2.582047,-0.16312 -1.467591,0.13705 -1.762149,0.075 -3.000807,-0.63246 -0.755414,-0.43144 -1.373478,-0.87903 -1.373478,-0.99465 0,-0.11563 -0.386953,-0.41026 -0.859896,-0.65475 -0.472943,-0.24448 -1.399551,-0.83504 -2.059131,-1.31236 -0.659577,-0.47731 -2.237155,-1.61713 -3.505729,-2.53293 -2.28097,-1.6466 -2.306576,-1.67767 -2.306576,-2.79856 0,-1.39554 -0.836735,-2.74116 -2.12194,-3.41247 -0.729144,-0.38085 -1.317615,-0.45411 -2.827629,-0.35199 l -1.90686,0.12895 -1.665015,-1.24834 c -0.915757,-0.68658 -2.677046,-1.951136 -3.913973,-2.810116 -1.236927,-0.858978 -2.321174,-1.666034 -2.409439,-1.793452 -0.08826,-0.12742 -0.466963,-0.430876 -0.841549,-0.674346 -2.688056,-1.747157 -7.569245,-5.135316 -8.05995,-5.594614 -0.343675,-0.321681 -0.595312,-0.871194 -0.595312,-1.300009 0,-1.013823 -0.656976,-2.249467 -1.632416,-3.070244 -0.734507,-0.618048 -1.009552,-0.679304 -2.87165,-0.639553 -1.264327,0.02699 -2.196904,-0.07646 -2.415661,-0.267952 -0.332158,-0.290764 -1.223989,-0.925647 -5.869649,-4.178527 -0.995043,-0.696727 -3.059033,-2.219275 -4.586633,-3.383441 -3.02596,-2.306058 -3.22043,-2.447761 -6.47406,-4.718026 -1.21627,-0.848665 -3.33553,-2.364391 -4.70945,-3.368281 -1.37396,-1.00389 -2.61298,-1.86355 -2.75339,-1.910358 -0.14041,-0.04681 -0.32599,-0.589351 -0.41235,-1.205653 -0.0864,-0.616302 -0.2761,-1.132113 -0.42162,-1.146244 -0.14552,-0.01413 -0.42412,-0.253489 -0.61915,-0.531908 -0.27919,-0.398589 -0.43386,-0.440393 -0.7276,-0.196622 -0.29999,0.248973 -0.37304,0.205253 -0.37304,-0.223287 0,-0.522399 -1.0805,-1.035873 -1.55834,-0.740553 -0.25567,0.157998 -2.22454,-0.358807 -2.41041,-0.632698 -0.0728,-0.107212 -1.32291,-1.008891 -2.77812,-2.003735 -1.45521,-0.994844 -3.36021,-2.319708 -4.23334,-2.944145 -0.87312,-0.624438 -2.37365,-1.665029 -3.33451,-2.312427 -0.96089,-0.647396 -1.91339,-1.335826 -2.11667,-1.529845 -0.20331,-0.194019 -1.26262,-0.947163 -2.35402,-1.673656 -1.09141,-0.726493 -2.02407,-1.410192 -2.07257,-1.519333 -0.0485,-0.10914 -0.20761,-0.198437 -0.35358,-0.198437 -0.26623,0 -4.483,-3.06193 -5.26897,-3.82596 -0.23048,-0.224054 -0.53946,-0.407373 -0.68659,-0.407373 -0.14714,0 -0.48303,-0.238125 -0.74642,-0.529167 -0.26339,-0.291042 -0.59044,-0.529167 -0.72676,-0.529167 -0.25347,0 -0.66503,-0.2946 -2.97256,-2.127847 -0.72494,-0.575935 -1.42619,-1.047152 -1.55832,-1.047152 -0.13216,0 -0.37245,-0.161304 -0.53404,-0.35845 -0.16155,-0.197146 -1.29167,-1.10739 -2.51137,-2.022763 -1.21967,-0.915371 -2.27536,-1.885164 -2.34595,-2.155092 -0.0706,-0.269928 -0.23352,-0.490779 -0.36206,-0.490779 -0.12856,0 -0.23373,-0.124259 -0.23373,-0.276129 0,-0.483413 -1.24315,-1.654514 -1.43195,-1.348984 -0.11295,0.182732 -0.35185,0.105905 -0.67474,-0.216985 -0.29626,-0.296259 -0.71316,-0.444108 -1.02346,-0.36296 -0.32944,0.08615 -1.04799,-0.212736 -1.93787,-0.806077 -1.91008,-1.273572 -5.83631,-4.033851 -6.23175,-4.381138 -0.17577,-0.154352 -0.40484,-0.280643 -0.50906,-0.280643 -0.10425,0 -1.0599,-0.714375 -2.12373,-1.5875 -1.06381,-0.873125 -2.03198,-1.5875 -2.15149,-1.5875 -0.11954,0 -0.58653,-0.267891 -1.03777,-0.595312 -0.45125,-0.327422 -1.0786,-0.773907 -1.39412,-0.992188 -0.31554,-0.218281 -1.57237,-1.141016 -2.79299,-2.050521 -1.22061,-0.909505 -2.29175,-1.653646 -2.38033,-1.653646 -0.0886,0 -0.327,-0.148828 -0.52983,-0.330729 -1.04526,-0.937381 -1.3327,-1.15644 -1.99617,-1.521354 -0.85789,-0.471837 -3.80871,-2.522574 -6.28174,-4.365625 -1.98067,-1.476102 -6.12963,-4.337229 -6.95378,-4.7953105 -0.29427,-0.1635655 -0.8614,-0.6100498 -1.26026,-0.9921875 -0.39886,-0.3821351 -0.80931,-0.6947932 -0.9121,-0.6947932 -0.10276,0 -1.28688,-0.8055557 -2.63133,-1.7901231 -1.34448,-0.9845675 -2.74215,-1.9968395 -3.10595,-2.2494901 -2.73447,-1.8990336 -3.52306,-2.4544813 -5.15937,-3.63405201 -1.01865,-0.73431662 -2.46611,-1.75315559 -3.21657,-2.26408979 -1.54839,-1.0542032 -1.95178,-1.4748007 -2.06557,-2.1537797 -0.0439,-0.2618952 -0.21284,-0.4464076 -0.3754,-0.4100274 -0.16258,0.03638 -0.29559,-0.058992 -0.29559,-0.2119392 0,-0.3347059 -1.78207,-1.1193304 -2.09833,-0.9238694 -0.12263,0.075787 -0.3701,-0.039489 -0.54991,-0.256167 -0.17984,-0.2166778 -0.48106,-0.3939619 -0.6694,-0.3939619 -0.18833,0 -0.38211,-0.096798 -0.43063,-0.2151062 -0.0485,-0.1183058 -0.92162,-0.7920196 -1.94027,-1.4971395 -1.01865,-0.7051198 -2.99024,-2.1263689 -4.38131,-3.1583315 -1.39108,-1.031965 -2.71272,-1.99536 -2.93699,-2.140881 -0.65484,-0.424923 -2.36653,-1.615239 -3.7942,-2.63851 -0.7276,-0.521501 -1.62057,-1.150461 -1.98437,-1.397685 -0.36381,-0.247224 -0.72099,-0.524933 -0.79375,-0.61713 -0.0728,-0.0922 -0.49816,-0.354986 -0.94531,-0.583978 -0.44717,-0.228991 -0.97806,-0.615195 -1.17975,-0.858231 -0.20172,-0.243036 -0.60976,-0.552199 -0.90678,-0.687028 -0.29702,-0.134829 -1.25441,-0.774649 -2.12754,-1.421823 -0.87312,-0.647171 -2.42094,-1.771221 -3.43958,-2.497889 -1.01865,-0.726667 -2.32833,-1.679715 -2.91042,-2.117889 -0.58208,-0.438171 -1.23693,-0.879528 -1.45521,-0.980792 -0.21828,-0.101264 -1.25891,-0.817708 -2.31253,-1.592101 -1.05363,-0.774393 -2.01745,-1.407985 -2.14181,-1.407985 -0.12438,0 -0.45296,-0.251166 -0.73017,-0.558149 -0.27723,-0.30698 -1.09934,-0.965682 -1.82694,-1.463781 -0.72761,-0.498097 -2.15636,-1.501133 -3.175,-2.228967 -1.01865,-0.727835 -2.4973,-1.765774 -3.28589,-2.306532 -0.78859,-0.540758 -1.75398,-1.221321 -2.1453,-1.512363 -0.39132,-0.291041 -1.59157,-1.12182 -2.66723,-1.846175 -1.64698,-1.109078 -3.45007,-2.384755 -4.60158,-3.255581 -1.93482,-1.463208 -3.66388,-2.719174 -4.63135,-3.364166 -0.65421,-0.436153 -1.24902,-0.864813 -1.32178,-0.952578 -0.0728,-0.08776 -0.42995,-0.314621 -0.79375,-0.504123 -0.3638,-0.189503 -0.95911,-0.572493 -1.32292,-0.851089 -2.29584,-1.758138 -5.6783,-4.175246 -5.84276,-4.175246 -0.15135,0 -3.0325,-2.038994 -5.13745,-3.635751 -0.29508,-0.223855 -0.95967,-0.550286 -2.91041,-1.429561 -1.39922,-0.630689 -2.76453,-0.728861 -5.10262,-0.366909 -0.83529,0.129307 -1.35628,0.334385 -1.29376,0.509251 0.0576,0.161019 0.35949,0.2644 0.67085,0.229736 0.35311,-0.03931 0.56615,0.08515 0.56615,0.330729 0,0.519163 -1.15593,0.516892 -1.5875,-0.0031 -0.44823,-0.540098 -0.72585,-0.498442 -0.92826,0.139285 -0.0936,0.294889 -0.30999,0.518907 -0.48085,0.497819 -0.75465,-0.09314 -1.01751,0.09815 -1.76038,1.281125 -0.61114,0.973217 -0.79034,1.568094 -0.79423,2.636626 -0.004,1.135312 -0.1392,1.533882 -0.76208,2.248959 -0.4164,0.478006 -0.96337,1.271782 -1.21549,1.763946 -0.44548,0.869557 -0.44482,1.185189 0.007,3.414841 0.097,0.478556 0.0508,1.371525 -0.10255,1.984375 -0.15341,0.61285 -0.4037,2.007242 -0.55621,3.098648 -0.15251,1.091406 -0.40386,2.817812 -0.55854,3.836458 -0.1547,1.018646 -0.32816,2.367051 -0.38547,2.996454 -0.0573,0.629404 -0.23484,1.301758 -0.39449,1.494121 -0.15965,0.192362 -0.4009,1.225206 -0.5361,2.295212 -0.1352,1.070004 -0.42614,3.017026 -0.64648,4.326713 -0.22035,1.309687 -0.52258,3.274219 -0.67159,4.365625 -0.33378,2.444377 -0.33761,2.464056 -1.14118,5.844537 -0.36012,1.514933 -0.73959,3.464621 -0.84325,4.332645 -0.30247,2.5322843 -0.75153,4.1103175 -1.16962,4.1103175 -0.36425,0 -1.08328,1.5699184 -1.08328,2.3652373 0,0.4556099 0.19298,1.1229023 0.42883,1.4828705 0.34595,0.5279628 0.3972,1.0679509 0.26514,2.79319031 -0.09,1.17628719 -0.2386,2.25987229 -0.33012,2.40797019 -0.0915,0.1480979 -0.32679,1.5956465 -0.52282,3.2167723 -0.196,1.6211259 -0.46627,3.6023444 -0.60057,4.4027089 -0.13428,0.800365 -0.38084,2.586302 -0.54788,3.96875 -0.16705,1.382448 -0.55626,4.148402 -0.86489,6.146562 -0.57841,3.744507 -0.55079,4.651285 0.26405,8.670104 0.64564,3.184327 2.58509,7.872135 4.02566,9.730335 0.30729,0.396388 0.89239,1.239533 1.30022,1.873658 0.40783,0.634121 1.20467,1.697008 1.7708,2.361972 1.33123,1.563677 5.02553,5.348618 5.22055,5.348618 0.13801,0 0.76737,0.543078 2.16805,1.870818 0.29615,0.280739 0.61605,0.510432 0.71088,0.510432 0.0948,0 0.92406,0.511432 1.84277,1.136512 1.40404,0.95531 4.27427,2.724616 6.43287,3.965459 0.29104,0.167301 1.15242,0.695142 1.91415,1.172982 0.76176,0.477838 1.49133,0.868797 1.62126,0.868797 0.12994,0 0.38124,0.174686 0.55843,0.388189 0.27821,0.335221 1.70307,1.199477 4.58145,2.778857 0.60335,0.331068 2.66269,1.571808 6.81995,4.108995 0.23844,0.145521 1.11652,0.681302 1.95128,1.190625 0.83473,0.509323 1.8079,1.104636 2.16254,1.322917 0.35465,0.218281 3.11238,1.871361 6.12831,3.673509 3.0159,1.802151 6.07877,3.66349 6.80638,4.136311 0.7276,0.472821 1.4487,0.903335 1.60242,0.956699 0.32806,0.113866 7.76774,4.516839 9.37665,5.549304 0.36444,0.233857 1.19838,0.722762 1.85322,1.086453 2.22104,1.233538 7.80166,4.5089 8.49712,4.987113 0.38058,0.261675 1.09495,0.658241 1.5875,0.881253 0.49257,0.223012 1.72902,0.946584 2.74767,1.607939 1.01865,0.661352 2.03068,1.282827 2.24896,1.381051 0.21828,0.09822 0.69453,0.382735 1.05833,0.632248 0.64678,0.443579 5.61533,3.412456 7.07115,4.22524 3.76013,2.099289 3.82839,2.154613 4.48202,3.63256 0.67029,1.51563 0.66669,1.5141 2.33746,0.99544 0.37642,-0.11685 1.56024,0.45828 4.10104,1.99237 1.96453,1.18616 3.83976,2.25955 4.16719,2.38532 0.32742,0.12577 0.59531,0.35069 0.59531,0.49981 0,0.14912 0.10483,0.27113 0.23294,0.27113 0.12811,0 1.46756,0.77321 2.97656,1.71824 1.509,0.94503 2.87401,1.71894 3.03334,1.71979 0.15936,7.9e-4 0.50522,0.23968 0.76862,0.53072 0.26339,0.29104 0.592,0.52917 0.73025,0.52917 0.13824,0 0.7806,0.35718 1.42745,0.79375 0.64685,0.43656 1.25135,0.79375 1.34329,0.79375 0.0919,0 1.12776,0.63318 2.30185,1.40708 2.03433,1.34096 5.67436,3.56319 7.22974,4.41375 0.39917,0.21828 0.78528,0.46172 0.85804,0.54098 0.1487,0.16198 1.71373,1.10121 3.30729,1.9848 0.58209,0.32276 2.48709,1.44725 4.23334,2.49888 1.74625,1.05163 4.14221,2.49441 5.32437,3.20619 1.18215,0.71178 2.257,1.29415 2.38852,1.29415 0.13155,0 0.52753,0.20836 0.87998,0.46302 0.35245,0.25466 1.2687,0.82021 2.03607,1.25677 0.7674,0.43656 2.97606,1.73503 4.90816,2.88549 1.93209,1.15045 3.84162,2.26115 4.24336,2.4682 0.44516,0.22943 0.93956,0.85922 1.26579,1.61243 0.80047,1.84809 0.943,2.03641 1.47995,1.95543 2.06264,-0.3111 3.16875,-0.16932 4.19198,0.5373 0.57949,0.40019 1.25137,0.72761 1.49304,0.72761 0.2417,0 0.50655,0.17483 0.58854,0.38851 0.082,0.21369 0.54123,0.57406 1.0205,0.80083 1.18951,0.56284 2.04906,1.07311 2.40181,1.42585 0.16237,0.16237 0.56906,0.29523 0.90376,0.29523 0.3347,0 0.57878,0.13337 0.5424,0.29639 -0.0594,0.26601 0.8533,0.96739 1.91823,1.47413 0.21828,0.10387 0.87312,0.50584 1.4552,0.89326 0.58209,0.38742 1.55276,0.98836 2.15707,1.33541 0.60434,0.34706 2.03309,1.18223 3.175,1.85594 1.14194,0.67371 2.49299,1.46369 3.00231,1.7555 0.50932,0.29182 2.29526,1.35666 3.96875,2.36632 1.67349,1.00966 3.2213,1.91764 3.43958,2.01773 0.21828,0.10009 0.7053,0.38902 1.08228,0.64208 0.71377,0.47915 2.39771,1.553 3.29337,2.10019 0.28552,0.17443 1.30022,0.79951 2.25484,1.38906 0.95464,0.58955 1.94392,1.0719 2.19842,1.0719 0.2545,0 0.38902,0.11929 0.2989,0.26508 -0.0901,0.14579 0.13957,0.38042 0.51035,0.5214 1.05381,0.40065 2.2514,1.87624 2.26066,2.7854 0.0161,1.59081 2.29071,2.92655 3.17304,1.86341 0.52501,-0.6326 1.35969,-0.49012 3.03358,0.51784 0.84582,0.50932 1.57215,0.92604 1.61406,0.92604 0.0419,0 1.34131,0.76712 2.88751,1.70471 1.5462,0.93759 2.89647,1.72688 3.00058,1.75397 0.10412,0.0271 0.7846,0.42727 1.5122,0.88928 0.72761,0.462 2.454014,1.48842 3.836462,2.28092 1.382448,0.7925 2.715234,1.55997 2.961746,1.70549 0.246512,0.14552 0.956495,0.54379 1.577711,0.88503 0.621241,0.34124 1.415811,0.84564 1.765723,1.12087 0.349895,0.27524 0.741251,0.4355 0.869669,0.35613 0.128416,-0.0794 0.233485,-0.027 0.233485,0.11644 0,0.14341 0.649822,0.57867 1.444048,0.96725 0.794226,0.38857 1.582711,0.87358 1.75219,1.07779 0.169476,0.20421 0.45602,0.37128 0.636765,0.37128 0.805293,0 3.310747,2.94985 3.310747,3.89799 0,0.23919 0.26789,0.8284 0.595312,1.30936 0.711965,1.04581 1.70379,1.161 2.866689,0.33294 l 0.765567,-0.54513 1.788819,0.979 c 0.983853,0.53845 3.098508,1.81449 4.699238,2.83565 1.600729,1.02116 4.398698,2.77186 6.217708,3.89045 7.328945,4.50687 7.016284,4.2477 7.652885,6.34356 0.409445,1.34802 0.754928,1.98087 1.263184,2.31389 1.011995,0.66308 2.551706,0.59373 3.344035,-0.15062 l 0.648266,-0.60902 1.020294,0.55202 c 0.561163,0.30362 2.612716,1.56265 4.559006,2.79785 1.94629,1.2352 3.58218,2.24581 3.63531,2.24581 0.0531,0 0.91054,0.52171 1.90535,1.15938 1.70313,1.09167 1.83677,1.25003 2.28873,2.71198 0.67877,2.19565 1.06095,2.8597 1.85367,3.22088 1.01399,0.46201 2.00544,0.38645 3.01642,-0.2299 0.49079,-0.29921 1.06597,-0.47741 1.27817,-0.396 0.2122,0.0814 1.63168,0.89226 3.1544,1.80181 1.52273,0.90953 3.28975,1.95138 3.92672,2.31519 1.55441,0.88778 1.50282,0.81698 2.27836,3.12737 0.54404,1.62073 0.85988,2.15249 1.56048,2.62731 1.13374,0.76838 2.3424,0.75544 3.51092,-0.0375 l 0.93254,-0.63286 1.58186,1.0002 c 0.87002,0.5501 2.02005,1.20812 2.55562,1.46225 1.08352,0.51419 1.40396,1.02973 2.26066,3.63715 0.45938,1.39816 0.75469,1.87714 1.34581,2.18281 1.06185,0.54912 2.2605496,0.48757 3.4424896,-0.17672 0.89532,-0.50318 1.1054,-0.52929 1.83343,-0.22772 1.41658,0.58676 2.26592,1.61917 2.89982,3.52486 0.82315,2.47464 1.43598,3.12893 3.07443004,3.28255 1.10017,0.10313 1.47087996,0.0109 2.33930996,-0.58216 0.99832,-0.68176 1.04768,-0.68903 1.51388,-0.2227 0.26504,0.26514 0.79826,1.37501 1.18491,2.46642 0.83995,2.3709 1.11526,2.72229 2.48772,3.17523 0.90783,0.29962 1.20369,0.28721 2.16611,-0.0908 0.6130704,-0.24082 1.1900904,-0.34872 1.2822504,-0.23976 0.0922,0.10893 0.3691,0.74633 0.6154,1.41642 0.38455,1.04624 0.40872,1.55085 0.1711,3.57187 -0.79211,6.73709 -0.92551,8.49932 -0.91928,12.14311 0.006,3.7565 0.0507,4.0927 0.82826,6.28681 1.10489,3.1178 2.17592,4.81283 4.87263,7.7115 2.21585,2.3818 2.28378,2.49399 2.82928,4.67209 0.54923,2.19302 1.90717,8.93455 2.95438,14.6671 0.88473,4.84311 1.78178,8.75945 2.81807,12.30312 0.36172,1.23693 0.89954,3.0824 1.19516,4.10104 0.29562,1.01865 1.13819,3.68718 1.87239,5.93006 l 1.33491,4.07797 -0.43304,2.27203 c -0.53407,2.80212 -0.86411,6.00802 -1.32342,12.85536 -0.40321,6.01104 -0.67636,7.35507 -2.6724,13.14942 -1.93582,5.61956 -2.34952,7.93702 -2.16328,12.11829 0.19509,4.37988 0.8366,6.8418 4.27448,16.40416 0.96789,2.69214 2.22042,6.08542 2.78341,7.54063 0.56299,1.45521 1.75312,4.96755 2.64473,7.80521 0.89162,2.83765 1.77871,5.57609 1.97133,6.08541 0.52421,1.38615 1.64946,5.91799 2.10228,8.46667 0.21976,1.23693 0.47745,4.45161 0.57265,7.14375 0.18231,5.15583 0.006,6.96822 -0.96021,9.84739 -0.6752,2.01279 -0.64927,2.74754 0.1146,3.24805 0.54308,0.35584 3.96427,0.43934 26.92136,0.65702 14.46457,0.13716 27.97869,0.32517 30.03139,0.4178 3.35557,0.15145 3.74951,0.12327 3.90391,-0.27908 z"
       style="fill:#ffffff;stroke-width:0.264583;fill-opacity:1" />
  </g>
</svg>
