<?xml version="1.0" encoding="UTF-8" standalone="no"?>
<svg
   xmlns:dc="http://purl.org/dc/elements/1.1/"
   xmlns:cc="http://creativecommons.org/ns#"
   xmlns:rdf="http://www.w3.org/1999/02/22-rdf-syntax-ns#"
   xmlns:svg="http://www.w3.org/2000/svg"
   xmlns="http://www.w3.org/2000/svg"
   xmlns:sodipodi="http://sodipodi.sourceforge.net/DTD/sodipodi-0.dtd"
   xmlns:inkscape="http://www.inkscape.org/namespaces/inkscape"
   width="714.4762"
   height="1024"
   viewBox="0 0 189.0504 270.97108"
   version="1.1"
   id="svg25"
   sodipodi:docname="map.svg"
   inkscape:version="0.92.4 (5da689c313, 2019-01-14)">
  <metadata
     id="metadata29">
    <rdf:RDF>
      <cc:Work
         rdf:about="">
        <dc:format>image/svg+xml</dc:format>
        <dc:type
           rdf:resource="http://purl.org/dc/dcmitype/StillImage" />
      </cc:Work>
    </rdf:RDF>
  </metadata>
  <sodipodi:namedview
     pagecolor="#ffffff"
     bordercolor="#666666"
     borderopacity="1"
     objecttolerance="10"
     gridtolerance="10"
     guidetolerance="10"
     inkscape:pageopacity="0"
     inkscape:pageshadow="2"
     inkscape:window-width="1920"
     inkscape:window-height="1016"
     id="namedview27"
     showgrid="false"
     inkscape:zoom="0.331"
     inkscape:cx="237.09198"
     inkscape:cy="511.9471"
     inkscape:window-x="0"
     inkscape:window-y="36"
     inkscape:window-maximized="1"
     inkscape:current-layer="svg25" />
  <g
     id="g841"
     transform="matrix(5.3286218,0,0,5.3286218,-0.28718409,0.05328622)">
    <path
       id="path2"
       d="m 9.835,37.67 a 51.38,51.38 0 0 1 4.007,5.91 c 1.022,1.938 1.448,3.252 2.195,5.587 0.458,1.29 0.872,1.675 1.762,1.675 0.97,0 1.41,-0.655 1.75,-1.668 0.706,-2.205 1.26,-3.888 2.134,-5.478 1.715,-3.07 3.846,-5.798 5.94,-8.42 0.567,-0.742 4.232,-5.065 5.882,-8.476 0,0 2.028,-3.747 2.028,-8.98 0,-4.895 -2,-8.29 -2,-8.29 l -5.758,1.542 -3.497,9.21 -0.865,1.27 -0.173,0.23 -0.23,0.288 -0.404,0.46 -0.577,0.577 -3.114,2.537 -7.785,4.495 z"
       inkscape:connector-curvature="0"
       style="fill:#34a853" />
    <path
       id="path4"
       d="m 1.8,26.17 c 1.9,4.34 5.564,8.155 8.043,11.503 L 23.01,22.076 c 0,0 -1.855,2.426 -5.22,2.426 -3.748,0 -6.776,-2.993 -6.776,-6.767 0,-2.588 1.557,-4.366 1.557,-4.366 l -8.938,2.395 z"
       inkscape:connector-curvature="0"
       style="fill:#fbbc04" />
    <path
       id="path6"
       d="m 23.157,0.792 c 4.373,1.41 8.116,4.37 10.38,8.735 l -10.523,12.54 c 0,0 1.557,-1.81 1.557,-4.382 0,-3.862 -3.252,-6.747 -6.765,-6.747 -3.322,0 -5.23,2.422 -5.23,2.422 v -7.9 z"
       inkscape:connector-curvature="0"
       style="fill:#4285f4" />
    <path
       id="path8"
       d="M 4.212,6.333 C 6.824,3.208 11.42,-0.01 17.756,-0.01 c 3.074,0 5.39,0.807 5.39,0.807 l -10.58,12.57 H 5.07 Z"
       inkscape:connector-curvature="0"
       style="fill:#1a73e8" />
    <path
       id="path10"
       d="m 1.8,26.17 c 0,0 -1.748,-3.423 -1.748,-8.382 0,-4.687 1.822,-8.784 4.16,-11.455 l 8.36,7.035 z"
       inkscape:connector-curvature="0"
       style="fill:#ea4335" />
  </g>
  <defs
     id="defs23">
    <path
       id="B"
       d="m 91.48,22.327 c -5.78,0 -9.922,4.518 -9.922,9.788 0,5.348 4.018,9.95 10,9.95 5.407,0 9.836,-4.132 9.836,-9.836 0,-6.537 -5.153,-9.904 -9.904,-9.904 z m 0.057,3.877 c 2.843,0 5.536,2.298 5.536,6 0,3.624 -2.683,5.99 -5.55,5.99 -3.15,0 -5.635,-2.523 -5.635,-6.017 0,-3.418 2.455,-5.972 5.648,-5.972 z"
       inkscape:connector-curvature="0" />
  </defs>
</svg>
