<?xml version="1.0" encoding="UTF-8" standalone="no"?>
<svg
   xmlns:dc="http://purl.org/dc/elements/1.1/"
   xmlns:cc="http://creativecommons.org/ns#"
   xmlns:rdf="http://www.w3.org/1999/02/22-rdf-syntax-ns#"
   xmlns:svg="http://www.w3.org/2000/svg"
   xmlns="http://www.w3.org/2000/svg"
   xmlns:sodipodi="http://sodipodi.sourceforge.net/DTD/sodipodi-0.dtd"
   xmlns:inkscape="http://www.inkscape.org/namespaces/inkscape"
   id="Layer_1"
   data-name="Layer 1"
   viewBox="0 0 1024 1024"
   version="1.1"
   sodipodi:docname="tripadvisor.svg"
   width="1024"
   height="1024"
   inkscape:version="0.92.4 (5da689c313, 2019-01-14)">
  <metadata
     id="metadata17">
    <rdf:RDF>
      <cc:Work
         rdf:about="">
        <dc:format>image/svg+xml</dc:format>
        <dc:type
           rdf:resource="http://purl.org/dc/dcmitype/StillImage" />
        <dc:title>Tripadvisor_Logo_circle-green_vertical-lockup_registered_RGB</dc:title>
      </cc:Work>
    </rdf:RDF>
  </metadata>
  <sodipodi:namedview
     pagecolor="#ffffff"
     bordercolor="#666666"
     borderopacity="1"
     objecttolerance="10"
     gridtolerance="10"
     guidetolerance="10"
     inkscape:pageopacity="0"
     inkscape:pageshadow="2"
     inkscape:window-width="1920"
     inkscape:window-height="1016"
     id="namedview15"
     showgrid="false"
     inkscape:zoom="0.096800328"
     inkscape:cx="-3153.6781"
     inkscape:cy="147.69781"
     inkscape:window-x="0"
     inkscape:window-y="36"
     inkscape:window-maximized="1"
     inkscape:current-layer="Layer_1" />
  <defs
     id="defs4">
    <style
       id="style2">.cls-1{fill:#34e0a1;}</style>
  </defs>
  <title
     id="title6">Tripadvisor_Logo_circle-green_vertical-lockup_registered_RGB</title>
  <g
     id="g817"
     transform="scale(1.0887131)">
    <circle
       style="fill:#34e0a1"
       id="circle10"
       r="470.28"
       cy="470.28"
       cx="470.28"
       class="cls-1" />
    <path
       inkscape:connector-curvature="0"
       id="path12"
       d="m 760.70996,378.5 56.77,-61.76 h -125.84 a 393.1,393.1 0 0 0 -442.34,0 h -126.17 l 56.77,61.76 a 173.48,173.48 0 1 0 234.79,255.45 l 55.62,60.51 55.58,-60.47 a 172.83,172.83 0 0 0 117.86,46.2 c 95.81,0 173.55,-77.67 173.55,-173.48 a 173.05,173.05 0 0 0 -56.59,-128.21 z m -463.92,245.61 a 117.4,117.4 0 1 1 117.4,-117.4 117.4,117.4 0 0 1 -117.4,117.4 z m 173.52,-120.78 c 0,-77.26 -56.2,-143.55 -130.31,-171.9 a 338.82,338.82 0 0 1 260.59,0 c -74.1,28.36 -130.28,94.65 -130.28,171.9 z m 173.44,120.78 a 117.4,117.4 0 1 1 117.4,-117.4 117.4,117.4 0 0 1 -117.4,117.4 z m 0,-178.94 a 61.55,61.55 0 1 0 61.55,61.54 61.54,61.54 0 0 0 -61.55,-61.54 z m -285.41,61.54 a 61.55,61.55 0 1 1 -61.55,-61.54 61.55,61.55 0 0 1 61.55,61.54 z" />
  </g>
</svg>
