<?xml version="1.0" encoding="UTF-8" standalone="no"?>
<!-- Created with Inkscape (http://www.inkscape.org/) -->

<svg
   xmlns:dc="http://purl.org/dc/elements/1.1/"
   xmlns:cc="http://creativecommons.org/ns#"
   xmlns:rdf="http://www.w3.org/1999/02/22-rdf-syntax-ns#"
   xmlns:svg="http://www.w3.org/2000/svg"
   xmlns="http://www.w3.org/2000/svg"
   xmlns:sodipodi="http://sodipodi.sourceforge.net/DTD/sodipodi-0.dtd"
   xmlns:inkscape="http://www.inkscape.org/namespaces/inkscape"
   version="1.1"
   width="1024"
   height="647.94391"
   id="svg3400"
   sodipodi:docname="wikipedia.svg"
   inkscape:version="0.92.4 (5da689c313, 2019-01-14)">
  <metadata
     id="metadata17">
    <rdf:RDF>
      <cc:Work
         rdf:about="">
        <dc:format>image/svg+xml</dc:format>
        <dc:type
           rdf:resource="http://purl.org/dc/dcmitype/StillImage" />
      </cc:Work>
    </rdf:RDF>
  </metadata>
  <sodipodi:namedview
     pagecolor="#ffffff"
     bordercolor="#666666"
     borderopacity="1"
     objecttolerance="10"
     gridtolerance="10"
     guidetolerance="10"
     inkscape:pageopacity="0"
     inkscape:pageshadow="2"
     inkscape:window-width="1920"
     inkscape:window-height="1016"
     id="namedview15"
     showgrid="false"
     inkscape:zoom="0.662"
     inkscape:cx="424.21725"
     inkscape:cy="317.92965"
     inkscape:window-x="0"
     inkscape:window-y="36"
     inkscape:window-maximized="1"
     inkscape:current-layer="svg3400" />
  <defs
     id="defs3402" />
  <g
     id="g818"
     transform="scale(9.2908471)">
    <path
       d="m 42.992,14.441778 c 0,0 -1.468,-2.984 -1.968,-3.976 -3.336,-6.6120002 -3.264,-6.9640002 -6.636,-7.4080002 -0.944,-0.124 -1.432,-0.244 -1.432,-0.712 V 0.25377778 l 0.284,-0.204 c 6.092,-0.008 19.648,-0.008 19.648,-0.008 l 0.52,0.172 V 2.2977778 c 0,0.476 -0.34,0.72 -1.032,0.72 l -1.424,0.204 c -3.6,0.28 -3.012,1.752 -0.62,6.516 l 22.708,46.4600002 0.776,0.212 20.16,-47.8440002 c 0.7,-1.928 0.592,-3.296 -0.308,-4.1 -0.904,-0.784 -1.54,-1.248 -3.876,-1.344 l -1.892,-0.096 c -0.232,0 -0.452,-0.084 -0.664,-0.24 -0.208,-0.148 -0.316,-0.344 -0.316,-0.58 V 0.21377778 l 0.288,-0.204 c 5.68,0 22.776,0 22.776,0 l 0.232,0.204 V 2.2057778 c 0,0.54 -0.308,0.812 -0.916,0.812 -2.984,0.132 -5.196,0.78 -6.628,1.936 -1.436,1.164 -2.556,2.768 -3.36,4.852 0,0 -18.54,42.4360002 -24.884,56.5400002 -2.428,4.624 -4.816,4.2 -6.916,-0.132 -4.436,-9.136 -16.928,-36.852 -16.928,-36.852 z"
       id="path3898"
       inkscape:connector-curvature="0" />
    <path
       d="m 79.376,0.01777778 c 0,0 -12.812,-0.04 -18.516,0 l -0.284,0.204 V 2.2057778 c 0,0.244 0.104,0.436 0.312,0.584 0.212,0.156 0.428,0.236 0.66,0.236 l 0.916,0.1 c 2.332,0.096 3.404,0.708 3.724,1.092 0.556,0.68 0.832,1.416 -0.516,4.356 l -23.92,47.7080002 -0.628,-0.164 c 0,0 -17.132,-36.124 -22.092,-48.2080002 -0.516,-1.252 -0.748,-2.18 -0.748,-2.752 0,-1.228 1.108,-1.892 3.324,-1.984 l 2.584,-0.108 c 0.684,0 1.032,-0.264 1.032,-0.812 V 0.26977778 l -0.232,-0.204 c 0,0 -20.52,-0.024 -24.76,0 L 0,0.26977778 V 2.3537778 c 0,0.376 0.476,0.608 1.432,0.712 2.604,0.14 4.316,0.556 5.14,1.248 0.82,0.7 1.688,2.468 2.84,5.224 6.228,14.9600002 19.46,41.6560002 25.904,56.8600002 1.856,4.152 4.188,4.796 7.02,-0.128 4.904,-9.096 18.2,-36.872 18.2,-36.872 L 71.008,9.8137778 c 1.22,-2.068 2.396,-3.912 2.992,-4.772 1.092,-1.572 1.704,-1.868 4.688,-2.008 0.608,0 0.916,-0.272 0.916,-0.82 V 0.22977778 Z"
       id="path3900"
       inkscape:connector-curvature="0" />
  </g>
</svg>
